<svg xmlns="http://www.w3.org/2000/svg" viewBox="0 0 457.18 457.16"><defs><style>.cls-1{font-size:38.69px;font-family:Poppins-Regular, Poppins;}</style></defs><g id="Capa_2" data-name="Capa 2"><g id="Capa_1-2" data-name="Capa 1"><text class="cls-1" transform="translate(182.55 37.97) rotate(-10.4)">-</text><text class="cls-1" transform="translate(202.88 34.26) rotate(-4.62)">F</text><text class="cls-1" transform="translate(221.65 32.6) rotate(1.38)">R</text><text class="cls-1" transform="matrix(0.99, 0.16, -0.16, 0.99, 244.37, 32.86)">O</text><text class="cls-1" transform="translate(273.5 37.52) rotate(17.18)">N</text><text class="cls-1" transform="translate(298.71 45.46) rotate(24.04)">T</text><text class="cls-1" transform="matrix(0.87, 0.5, -0.5, 0.87, 317.22, 53.72)">E</text><text class="cls-1" transform="matrix(0.8, 0.59, -0.59, 0.8, 333.95, 63.02)">N</text><text class="cls-1" transform="translate(355.15 78.63) rotate(44.17)">D</text><text class="cls-1" transform="translate(374.14 97.26) rotate(51.02)">-</text><text class="cls-1" transform="matrix(0.53, 0.85, -0.85, 0.53, 387.26, 113.11)">D</text><text class="cls-1" transform="translate(401.24 135.72) rotate(64.59)">E</text><text class="cls-1" transform="translate(409.57 152.99) rotate(70.65)">S</text><text class="cls-1" transform="translate(416.69 173.99) rotate(75.25)">I</text><text class="cls-1" transform="translate(419.47 182.47) rotate(80.88)">G</text><text class="cls-1" transform="matrix(0.02, 1, -1, 0.02, 424.06, 211.35)">N</text><text class="cls-1" transform="translate(424.37 237.79) rotate(95.53)">E</text><text class="cls-1" transform="translate(422.66 256.88) rotate(101.68)">R</text><text class="cls-1" transform="matrix(-0.31, 0.95, -0.95, -0.31, 418.03, 279.2)">-</text><text class="cls-1" transform="translate(411.6 298.86) rotate(113.89)">F</text><text class="cls-1" transform="matrix(-0.5, 0.87, -0.87, -0.5, 404.12, 316.12)">R</text><text class="cls-1" transform="translate(393.02 335.91) rotate(127.62)">O</text><text class="cls-1" transform="translate(374.94 359.28) rotate(135.74)">N</text><text class="cls-1" transform="translate(355.92 377.63) rotate(142.51)">T</text><text class="cls-1" transform="translate(339.82 389.98) rotate(148.27)">E</text><text class="cls-1" transform="matrix(-0.91, 0.42, -0.42, -0.91, 323.71, 400.24)">N</text><text class="cls-1" transform="translate(299.86 411.46) rotate(162.72)">D</text><text class="cls-1" transform="translate(274.44 419.23) rotate(169.66)">-</text><text class="cls-1" transform="translate(254.26 423.14) rotate(176.53)">D</text><text class="cls-1" transform="translate(227.68 424.57) rotate(-176.88)">E</text><text class="cls-1" transform="translate(208.53 423.64) rotate(-170.88)">S</text><text class="cls-1" transform="matrix(-0.97, -0.24, 0.24, -0.97, 186.68, 419.89)">I</text><text class="cls-1" transform="translate(177.88 418.3) rotate(-160.64)">G</text><text class="cls-1" transform="translate(150.35 408.58) rotate(-152.49)">N</text><text class="cls-1" transform="translate(126.96 396.2) rotate(-145.82)">E</text><text class="cls-1" transform="translate(111.04 385.56) rotate(-139.71)">R</text><text class="cls-1" transform="translate(93.65 370.78) rotate(-133.39)">-</text><text class="cls-1" transform="matrix(-0.61, -0.79, 0.79, -0.61, 79.46, 355.76)">F</text><text class="cls-1" transform="translate(67.83 340.92) rotate(-121.56)">R</text><text class="cls-1" transform="translate(55.72 321.75) rotate(-113.91)">O</text><text class="cls-1" transform="translate(43.8 294.75) rotate(-105.7)">N</text><text class="cls-1" transform="translate(36.78 269.26) rotate(-98.85)">T</text><text class="cls-1" transform="translate(33.66 249.23) rotate(-93.09)">E</text><text class="cls-1" transform="translate(32.38 230.13) rotate(-86.53)">N</text><text class="cls-1" transform="translate(33.91 203.82) rotate(-78.82)">D</text><text class="cls-1" transform="translate(39.19 177.78) rotate(-71.88)">-</text><text class="cls-1" transform="translate(45.37 158.17) rotate(-64.94)">D</text><text class="cls-1" transform="matrix(0.53, -0.85, 0.85, 0.53, 56.79, 134.15)">E</text><text class="cls-1" transform="translate(66.8 117.77) rotate(-52.23)">S</text><text class="cls-1" transform="translate(80.56 100.4) rotate(-47.7)">I</text><text class="cls-1" transform="translate(86.19 93.43) rotate(-42.12)">G</text><text class="cls-1" transform="translate(107.87 73.87) rotate(-34.04)">N</text><text class="cls-1" transform="translate(129.87 59.22) rotate(-27.38)">E</text><text class="cls-1" transform="translate(146.82 50.28) rotate(-21.21)">R</text></g></g></svg>